<?xml version="1.0" encoding="utf-8"?>
<!-- Generator: Adobe Illustrator 23.1.0, SVG Export Plug-In . SVG Version: 6.00 Build 0)  -->
<svg version="1.1" id="layer_x5F_1" xmlns="http://www.w3.org/2000/svg" xmlns:xlink="http://www.w3.org/1999/xlink" x="0px"
	 y="0px" viewBox="0 0 200 200" style="enable-background:new 0 0 200 200;" xml:space="preserve">
<style type="text/css">
	.st0{fill:#FFFFFF;stroke:#FF9900;stroke-width:10;stroke-miterlimit:10;}
	.st1{fill:none;stroke:#FF9900;stroke-width:10;stroke-miterlimit:10;}
</style>
<g id="face">
	<path class="st0" d="M195,100c0,68-19.9,94.9-95,95c-69.6,0.1-95-24.8-95-95C5,28.9,32.8,5,100,5C170.5,5,195,33.2,195,100z"/>
	<g>
		<path class="st0" d="M156.5,53.2c0,0.2,0,0.3,0,0.5c0,7.2-8.1,13.2-18,13.2c-9.9,0-18-5.9-18-13.2"/>
		<path class="st0" d="M79.5,53.2c0,0.2,0,0.3,0,0.5c0,7.2-8.1,13.2-18,13.2s-18-5.9-18-13.1"/>
	</g>
	<path class="st1" d="M46,134.4c21.6,25.2,85.1,25.5,108.1,0"/>
	<path class="st1" d="M100.2,73.9c0.1,34.9-32.9,45.4,11.3,45.4"/>
</g>
</svg>
