<?xml version="1.0" encoding="utf-8"?>
<!-- Generator: Adobe Illustrator 23.1.0, SVG Export Plug-In . SVG Version: 6.00 Build 0)  -->
<svg version="1.1" id="layer_x5F_1" xmlns="http://www.w3.org/2000/svg" xmlns:xlink="http://www.w3.org/1999/xlink" x="0px"
	 y="0px" viewBox="0 0 200 200" style="enable-background:new 0 0 200 200;" xml:space="preserve">
<style type="text/css">
	.st0{fill:#FFFFFF;stroke:#000000;stroke-width:10;stroke-miterlimit:10;}
	.st1{fill:none;stroke:#000000;stroke-width:10;stroke-miterlimit:10;}
</style>
<g id="face">
	<path class="st0" d="M195,100c0,68-19.9,94.94-95,95c-69.57,0.06-95-24.84-95-95C5,28.86,32.83,5,100,5C170.53,5,195,33.17,195,100
		z"/>
	<g>
		<path class="st0" d="M156.46,53.23c0.01,0.15,0.01,0.31,0.01,0.46c0,7.22-8.12,13.16-17.99,13.16c-9.87,0-17.99-5.94-17.99-13.16"
			/>
		<path class="st0" d="M79.51,53.23c0.01,0.15,0.01,0.31,0.01,0.46c0,7.22-8.12,13.16-17.99,13.16S43.53,60.92,43.53,53.7"/>
	</g>
	<path class="st1" d="M45.95,134.4c21.65,25.16,85.12,25.54,108.1,0"/>
	<path class="st1" d="M100.21,73.86c0.13,34.88-32.91,45.39,11.32,45.39"/>
</g>
</svg>
