<?xml version="1.0" encoding="utf-8"?>
<!-- Generator: Adobe Illustrator 23.1.0, SVG Export Plug-In . SVG Version: 6.00 Build 0)  -->
<svg version="1.1" id="layer_x5F_1" xmlns="http://www.w3.org/2000/svg"
     x="0px"
     y="0px" viewBox="0 0 415.46 215.21" style="enable-background:new 0 0 415.46 215.21;" xml:space="preserve">
<style type="text/css">
	.st0{fill:none;stroke:#F3971B;stroke-width:12;stroke-miterlimit:10;}
	.st1{fill:none;stroke:#4B8EC7;stroke-width:13;stroke-miterlimit:10;}
	.st2{fill:#4B8EC7;}
	.st3{fill:#F3971B;}
</style>
    <path class="st0" d="M163.48,124.73c-8.83,14.7-26.26,58.48-80.26,58.48C40.86,183.21,6,149.53,6,108.6s34.86-74.61,77.22-74.61
	c51.01,0,66.27,33.28,81.22,56.25l9.48,15.91L163.48,124.73z"/>
    <path class="st1" d="M201.69,129.12c22.41,41.65,54.68,79.59,106.26,79.59c55.41,0,101.01-45.64,101.01-101.1S363.36,6.5,307.95,6.5
	c-53.61,0-81.52,39.73-105.76,78.61l-13.67,21.15L201.69,129.12z"/>
    <g>
	<path class="st2" d="M29.84,129.3c0.46-1.53,2.15-2.33,3.62-1.7c2.47,1.05,5.45,1.79,8.54,1.79c6.41,0,10.15-3.38,10.15-8.28
		c0-4.54-2.59-7.13-9.14-9.65c-7.92-2.81-12.82-6.91-12.82-13.75c0-7.56,6.26-13.18,15.7-13.18c3.44,0,6.22,0.55,8.32,1.3
		c1.38,0.49,2.09,2.01,1.62,3.39v0c-0.48,1.43-2.05,2.18-3.47,1.66c-1.71-0.62-3.98-1.17-6.69-1.17c-6.62,0-9.15,3.96-9.15,7.27
		c0,4.54,2.95,6.77,9.65,9.36c8.21,3.17,12.39,7.13,12.39,14.26c0,7.49-5.54,13.97-16.99,13.97c-3.6,0-7.46-0.81-10.23-1.97
		c-1.26-0.53-1.91-1.94-1.51-3.25L29.84,129.3z"/>
        <path class="st2" d="M70.87,117.58c0.14,8.57,5.62,12.1,11.95,12.1c3.16,0,5.45-0.39,7.35-0.96c1.27-0.38,2.6,0.42,2.9,1.71l0,0
		c0.29,1.2-0.41,2.39-1.58,2.78c-2.27,0.74-5.43,1.37-9.54,1.37c-10.73,0-17.14-7.06-17.14-17.57c0-10.51,6.19-18.79,16.35-18.79
		c11.38,0,14.4,10.01,14.4,16.42c0,1.3-0.14,2.3-0.22,2.95L70.87,117.58z M89.45,113.05c0.07-4.03-1.66-10.3-8.78-10.3
		c-6.41,0-9.22,5.9-9.72,10.3L89.45,113.05z"/>
        <path class="st2" d="M106.58,82.73L106.58,82.73c1.75,0,3.17,1.42,3.17,3.17v44.79c0,1.75-1.42,3.17-3.17,3.17h0
		c-1.75,0-3.17-1.42-3.17-3.17V85.9C103.42,84.15,104.84,82.73,106.58,82.73z"/>
        <path class="st2" d="M121.06,132.2v-26.71c0-0.91-0.74-1.66-1.66-1.66h-1.58c-0.91,0-1.66-0.74-1.66-1.66v-1.51
		c0-0.91,0.74-1.66,1.66-1.66h1.58c0.91,0,1.66-0.74,1.66-1.66l0,0c0-4.9,1.08-9.36,4.03-12.17c2.38-2.3,5.54-3.24,8.5-3.24
		c1.5,0,2.88,0.23,3.99,0.53c0.81,0.22,1.31,1.05,1.17,1.88l-0.29,1.62c-0.16,0.93-1.06,1.53-1.97,1.33
		c-0.68-0.15-1.47-0.24-2.39-0.24c-5.4,0-6.77,4.75-6.77,10.08v0.22c0,0.91,0.74,1.66,1.66,1.66h5.11c0.91,0,1.66,0.74,1.66,1.66
		v1.51c0,0.91-0.74,1.66-1.66,1.66h-5.11c-0.91,0-1.66,0.74-1.66,1.66v26.71c0,0.91-0.74,1.66-1.66,1.66h-2.95
		C121.8,133.86,121.06,133.12,121.06,132.2z"/>
</g>
    <g>
	<path class="st3" d="M252.99,124.74c0.34,1.32-0.4,2.69-1.7,3.1c-2.54,0.79-6.19,1.42-10.54,1.42c-13.68,0-23.98-8.64-23.98-24.55
		c0-15.19,10.3-25.49,25.35-25.49c4.05,0,7.1,0.58,9.17,1.23c1.34,0.42,2.08,1.84,1.68,3.18l-0.05,0.17
		c-0.4,1.36-1.84,2.18-3.2,1.75c-2.06-0.65-4.57-1.07-7.39-1.07c-11.38,0-18.94,7.27-18.94,20.02c0,11.88,6.84,19.51,18.65,19.51
		c2.71,0,5.47-0.4,7.74-1.07C251.18,122.52,252.63,123.34,252.99,124.74L252.99,124.74z"/>
        <path class="st3" d="M264.37,77.41L264.37,77.41c1.75,0,3.17,1.42,3.17,3.17v44.79c0,1.75-1.42,3.17-3.17,3.17h0
		c-1.75,0-3.17-1.42-3.17-3.17V80.58C261.2,78.83,262.62,77.41,264.37,77.41z"/>
        <path class="st3" d="M309.73,110.82c0,12.89-8.93,18.51-17.35,18.51c-9.43,0-16.71-6.91-16.71-17.93
		c0-11.66,7.63-18.51,17.28-18.51C302.96,92.89,309.73,100.17,309.73,110.82z M282.08,111.18c0,7.63,4.39,13.39,10.58,13.39
		c6.05,0,10.58-5.69,10.58-13.54c0-5.9-2.95-13.39-10.44-13.39C285.32,97.65,282.08,104.56,282.08,111.18z"/>
        <path class="st3" d="M346.88,119.03c0,2.39,0.03,4.59,0.12,6.6c0.07,1.59-1.22,2.91-2.81,2.91l0,0c-1.48,0-2.71-1.15-2.8-2.63
		l-0.19-3.06h-0.14c-1.66,2.81-5.33,6.48-11.52,6.48c-5.47,0-12.03-3.02-12.03-15.27V96.49c0-1.55,1.26-2.81,2.81-2.81h0.72
		c1.55,0,2.81,1.26,2.81,2.81v16.49c0,6.62,2.02,11.09,7.78,11.09c4.25,0,7.2-2.95,8.35-5.76c0.36-0.94,0.58-2.09,0.58-3.24V96.49
		c0-1.55,1.26-2.81,2.81-2.81h0.72c1.55,0,2.81,1.26,2.81,2.81V119.03z"/>
        <path class="st3" d="M384.67,77.41c1.56,0,2.82,1.26,2.82,2.82v39.3c0,1.98,0.03,4.15,0.11,6.07c0.07,1.6-1.21,2.93-2.82,2.93l0,0
		c-1.51,0-2.75-1.18-2.82-2.69l-0.16-3.36h-0.14c-1.94,3.89-6.19,6.84-11.88,6.84c-8.42,0-14.91-7.13-14.91-17.71
		c-0.07-11.59,7.13-18.72,15.63-18.72c5.33,0,8.93,2.52,10.51,5.33h0.14V80.23c0-1.56,1.26-2.82,2.82-2.82H384.67z M381.15,107.87
		c0-0.79-0.07-1.87-0.29-2.66c-0.94-4.03-4.39-7.34-9.14-7.34c-6.55,0-10.44,5.76-10.44,13.47c0,7.06,3.46,12.89,10.3,12.89
		c4.25,0,8.14-2.81,9.29-7.56c0.22-0.86,0.29-1.73,0.29-2.74V107.87z"/>
</g>
</svg>
