<?xml version="1.0" encoding="utf-8"?>
<!-- Generator: Adobe Illustrator 23.1.0, SVG Export Plug-In . SVG Version: 6.00 Build 0)  -->
<svg version="1.1" id="layer_x5F_1" xmlns="http://www.w3.org/2000/svg"
     x="0px"
     y="0px" viewBox="0 0 200 200" style="enable-background:new 0 0 200 200;" xml:space="preserve">
<style type="text/css">
	.st0{fill:none;stroke:#000000;stroke-width:10;stroke-miterlimit:10;}
</style>
    <g id="gear">
	<circle class="st0" cx="100" cy="100" r="47.42"/>
        <g>
		<path class="st0" d="M135.49,41.26l-19.06-7.88c-2.07-0.86-3.06-3.23-2.2-5.31L122.1,9c0.86-2.07,3.23-3.06,5.31-2.2l19.06,7.88
			c2.07,0.86,3.06,3.23,2.2,5.31l-7.88,19.06C139.94,41.13,137.56,42.12,135.49,41.26z"/>
            <path class="st0" d="M165.94,83.43l-7.64-18.4c-0.94-2.25,0.13-4.84,2.39-5.78l18.4-7.64c2.25-0.94,4.84,0.13,5.78,2.39l7.64,18.4
			c0.94,2.25-0.13,4.84-2.39,5.78l-18.4,7.64C169.46,86.76,166.87,85.69,165.94,83.43z"/>
            <path class="st0" d="M158.45,135.3l7.88-19.06c0.86-2.07,3.23-3.06,5.31-2.2l19.06,7.88c2.07,0.86,3.06,3.23,2.2,5.31l-7.88,19.06
			c-0.86,2.07-3.23,3.06-5.31,2.2l-19.06-7.88C158.58,139.75,157.59,137.38,158.45,135.3z"/>
            <path class="st0" d="M116.61,165.89l18.4-7.64c2.25-0.94,4.84,0.13,5.78,2.39l7.64,18.4c0.94,2.25-0.13,4.84-2.39,5.78l-18.4,7.64
			c-2.25,0.94-4.84-0.13-5.78-2.39l-7.64-18.4C113.29,169.41,114.36,166.83,116.61,165.89z"/>
            <path class="st0" d="M64.6,158.74l19.06,7.88c2.07,0.86,3.06,3.23,2.2,5.31L77.99,191c-0.86,2.07-3.23,3.06-5.31,2.2l-19.06-7.88
			c-2.07-0.86-3.06-3.23-2.2-5.31l7.88-19.06C60.15,158.87,62.53,157.89,64.6,158.74z"/>
            <path class="st0" d="M34.16,116.57l7.64,18.4c0.94,2.25-0.13,4.84-2.39,5.78l-18.4,7.64c-2.25,0.94-4.84-0.13-5.78-2.39
			l-7.64-18.4c-0.94-2.25,0.13-4.84,2.39-5.78l18.4-7.64C30.63,113.24,33.22,114.31,34.16,116.57z"/>
            <path class="st0" d="M41.55,64.66l-7.88,19.06c-0.86,2.07-3.23,3.06-5.31,2.2L9.3,78.05c-2.07-0.86-3.06-3.23-2.2-5.31l7.88-19.06
			c0.86-2.07,3.23-3.06,5.31-2.2l19.06,7.88C41.42,60.21,42.41,62.59,41.55,64.66z"/>
            <path class="st0" d="M83.48,34.11l-18.4,7.64c-2.25,0.94-4.84-0.13-5.78-2.39l-7.64-18.4c-0.94-2.25,0.13-4.84,2.39-5.78
			l18.4-7.64c2.25-0.94,4.84,0.13,5.78,2.39l7.64,18.4C86.8,30.59,85.73,33.18,83.48,34.11z"/>
	</g>
        <circle class="st0" cx="100" cy="100" r="67.04"/>
</g>
</svg>
